<svg width="80" height="80" viewBox="0 0 80 80" fill="none" xmlns="http://www.w3.org/2000/svg" role="img" aria-label="Narrow icon">

<path d="M20 18C18 24 18 32 20 40C22 48 24 56 24 62" stroke="#77A582" stroke-width="7" stroke-linecap="round"/>
<path d="M60 18C62 24 62 32 60 40C58 48 56 56 56 62" stroke="#77A582" stroke-width="7" stroke-linecap="round"/>
<path d="M31 18L40 62" stroke="#D9D9D2" stroke-width="8" stroke-linecap="round"/>
<path d="M49 18L40 62" stroke="#AAB7AA" stroke-width="8" stroke-linecap="round" opacity="0.95"/>
<path d="M25 34H55" stroke="#FFFFFF" stroke-width="2.5" stroke-linecap="round" opacity="0.55"/>

<path d="M18 62C23 58 28 58 33 62C38 66 43 66 48 62C53 58 58 58 63 62" stroke="#5DB6E6" stroke-width="3" stroke-linecap="round" fill="none"/>

</svg>
