<svg width="80" height="80" viewBox="0 0 80 80" fill="none" xmlns="http://www.w3.org/2000/svg" role="img" aria-label="Gate icon">

<rect x="13" y="20" width="7" height="44" rx="3" fill="#E7A13E"/>
<rect x="60" y="20" width="7" height="44" rx="3" fill="#E7A13E"/>
<rect x="19" y="27" width="42" height="6" rx="3" fill="#F2C36B"/>
<rect x="19" y="47" width="42" height="6" rx="3" fill="#F2C36B"/>
<path d="M22 52L58 28" stroke="#B46A22" stroke-width="5" stroke-linecap="round"/>
<path d="M22 29L58 52" stroke="#B46A22" stroke-width="5" stroke-linecap="round"/>
<circle cx="20" cy="30" r="2" fill="#7B451A"/><circle cx="60" cy="30" r="2" fill="#7B451A"/>

<rect x="49" y="44" width="18" height="15" rx="4" fill="#E9E4F7" stroke="#1F2430" stroke-width="2.5"/>
<path d="M53 44V40C53 35.5 56.2 32 60 32C63.8 32 67 35.5 67 40V44" stroke="#1F2430" stroke-width="2.5" stroke-linecap="round"/>
<circle cx="58.5" cy="51.5" r="1.8" fill="#1F2430"/>

</svg>
