<svg width="80" height="80" viewBox="0 0 80 80" fill="none" xmlns="http://www.w3.org/2000/svg" role="img" aria-label="Mud icon">

<ellipse cx="39" cy="51" rx="25" ry="12" fill="#4A9CC5"/>
<ellipse cx="34" cy="49" rx="15" ry="7" fill="#7CC6E6" opacity="0.95"/>
<circle cx="22" cy="36" r="4" fill="#4A9CC5"/>
<path d="M20 26C20 22 22.5 19 24.5 16C26.5 19 29 22 29 26C29 29.3 26.1 32 22.5 32C19.5 32 17 29.6 17 26Z" fill="#7CC6E6"/>
<path d="M18 60H60" stroke="#8B6A4A" stroke-width="4" stroke-linecap="round" opacity="0.8"/>

<path d="M48 15C51 12 55 12 58 15C61 18 65 18 68 15" stroke="#2F6E8C" stroke-width="2.6" stroke-linecap="round" fill="none"/>
<path d="M46 22C50 19 54 19 58 22C62 25 66 25 70 22" stroke="#2F6E8C" stroke-width="2.6" stroke-linecap="round" fill="none"/>

</svg>
