<svg width="80" height="80" viewBox="0 0 80 80" fill="none" xmlns="http://www.w3.org/2000/svg" role="img" aria-label="Narrow icon">

<path d="M20 18C18 24 18 32 20 40C22 48 24 56 24 62" stroke="#77A582" stroke-width="7" stroke-linecap="round"/>
<path d="M60 18C62 24 62 32 60 40C58 48 56 56 56 62" stroke="#77A582" stroke-width="7" stroke-linecap="round"/>
<path d="M31 18L40 62" stroke="#D9D9D2" stroke-width="8" stroke-linecap="round"/>
<path d="M49 18L40 62" stroke="#AAB7AA" stroke-width="8" stroke-linecap="round" opacity="0.95"/>
<path d="M25 34H55" stroke="#FFFFFF" stroke-width="2.5" stroke-linecap="round" opacity="0.55"/>

<path d="M17 22C14 18 12 16 10 14" stroke="#68B26B" stroke-width="3" stroke-linecap="round"/>
<path d="M63 22C66 18 68 16 70 14" stroke="#68B26B" stroke-width="3" stroke-linecap="round"/>
<path d="M12 18C15 17 18 18 20 21" stroke="#68B26B" stroke-width="3" stroke-linecap="round"/>
<path d="M60 21C62 18 65 17 68 18" stroke="#68B26B" stroke-width="3" stroke-linecap="round"/>

</svg>
