<svg width="80" height="80" viewBox="0 0 80 80" fill="none" xmlns="http://www.w3.org/2000/svg" role="img" aria-label="Steep icon">

<path d="M12 57C22 55 28 51 35 43C43 34 49 26 68 22" stroke="#7568A9" stroke-width="6" stroke-linecap="round" fill="none"/>
<path d="M12 57L12 64H68V22C56 26 49 33 42 41C35 49 25 56 12 57Z" fill="#C9C0E4" opacity="0.95"/>
<path d="M22 54C26 52 31 49 36 44C42 39 46 34 53 29" stroke="#FFFFFF" stroke-width="3" stroke-linecap="round" opacity="0.75"/>

<path d="M57 34C59 31 61 28 62 25C64 28 66 31 66 34C66 36.8 64.1 39 61.5 39C58.9 39 57 36.8 57 34Z" fill="#5DB6E6"/>
<path d="M54 45L60 51" stroke="#1F2430" stroke-width="3" stroke-linecap="round"/>
<path d="M60 45L66 51" stroke="#1F2430" stroke-width="3" stroke-linecap="round"/>

</svg>
